# xmcd CD database file
#
# Track frame offsets:
#	150
#	17938
#	37135
#	50185
#	70140
#	82213
#	95230
#	110438
#	131215
#	146365
#	168375
#	183893
#	205668
#	220553
#	252165
#	271363
#	285063
#	304213
#
# Disc length: 4303 seconds
#
# Revision: 0
# Processed by: cddbd v1.5.1PL0 Copyright (c) Steve Scherf et al.
# Submitted via: CDex 1.51
#
DISCID=0f10cd12
DTITLE=HAWAIIAN - HULA Le'a
DYEAR=2002
DGENRE=Vocal
TTITLE0=Ku'u Wehi O Ke Aumoe - KEALI'I REICHEL
TTITLE1=He Po Lani Makamae - ROBI KAHAKALAU
TTITLE2=Hula O Makee - KAMAKAKELE "BULA" KA'I LIWAI
TTITLE3=Poliahu - TERESA BRIGHT
TTITLE4=Ipo Lei Momi - KEALI'I REICHEL
TTITLE5=Papalina Lahilahi - GENOA KEAWE
TTITLE6=Kananaka - KEALI'I REICHEL
TTITLE7=Lei Lokelani /ULUWEHI GUERRERO
TTITLE8=Mapu Mau Ke 'Ala - 'ALE'A
TTITLE9=Pohai Kealoha - LAULOA
TTITLE10=Ka Uluwehi O Ke Kai - HAPA
TTITLE11=Kipahulu - ULUWEHI GUERRERO
TTITLE12=Ka Loke - MAKAHA SONS fearturing DENNIS PAVAO
TTITLE13=Maunaloa-Kalei E - MAUNALUA
TTITLE14=Hopoe - MAKAHA SONS
TTITLE15=Pua Lililefua - KAHAUANU LAKE TRIO
TTITLE16=hanohano 'O Maui - KEALI'I REICHEL
TTITLE17=If We Hold On Together - KEALI'I REICHEL
EXTD=YEAR: 2002
EXTT0=
EXTT1=
EXTT2=
EXTT3=
EXTT4=
EXTT5=
EXTT6=
EXTT7=
EXTT8=
EXTT9=
EXTT10=
EXTT11=
EXTT12=
EXTT13=
EXTT14=
EXTT15=
EXTT16=
EXTT17=
PLAYORDER=
